<?xml version="1.0" encoding="utf-8"?>
<!-- Generator: Adobe Illustrator 25.0.0, SVG Export Plug-In . SVG Version: 6.00 Build 0)  -->
<svg version="1.1" id="Layer_1" xmlns="http://www.w3.org/2000/svg" xmlns:xlink="http://www.w3.org/1999/xlink" x="0px" y="0px"
	 viewBox="0 0 256 256" style="enable-background:new 0 0 256 256;" xml:space="preserve">
<style type="text/css">
	.st0{fill:#0B4195;}
	.st1{fill:#FFFFFF;}
	.st2{display:none;}
	.st3{display:inline;fill:#1E58B1;}
	.st4{display:inline;fill:#3A70C4;}
</style>
<g id="icon-256x256.psd_1_">
	<rect class="st0" width="256" height="256"/>
	<g>
		<path class="st1" d="M40.9,172.1c0-6.8,5-11.5,11.2-11.5c3.6,0,6.3,1.6,8.2,3.9l-1.6,1c-1.4-1.9-3.8-3.2-6.6-3.2
			c-5.2,0-9.2,4-9.2,9.8c0,5.7,4,9.8,9.2,9.8c2.7,0,5.2-1.3,6.6-3.2l1.6,1c-2,2.4-4.6,4-8.2,4C45.8,183.7,40.9,179,40.9,172.1z"/>
		<path class="st1" d="M64.5,175.2c0-4.7,3-8.5,7.7-8.5c4.8,0,7.8,3.7,7.8,8.5c0,4.7-3,8.5-7.8,8.5
			C67.6,183.7,64.5,179.9,64.5,175.2z M78.2,175.2c0-3.6-2.1-6.9-5.9-6.9c-3.7,0-5.9,3.3-5.9,6.9c0,3.6,2.1,6.9,5.9,6.9
			C76.1,182.1,78.2,178.8,78.2,175.2z"/>
		<path class="st1" d="M96.8,172.4c0-3.1-1.6-4.1-3.9-4.1c-2.1,0-4.2,1.3-5.2,2.8v12.2h-1.7v-16.1h1.7v2.4c1.2-1.4,3.5-2.8,5.8-2.8
			c3.3,0,5.1,1.6,5.1,5.2v11.3h-1.7V172.4z"/>
		<path class="st1" d="M102.6,167.1h1.9l5.8,14.1l5.8-14.1h2l-6.8,16.1h-2L102.6,167.1z"/>
		<path class="st1" d="M129,166.7c4.9,0,7.6,3.9,7.6,8.6v0.5h-13.5c0.2,3.5,2.5,6.4,6.3,6.4c2.1,0,3.9-0.8,5.3-2.2l0.9,1.1
			c-1.6,1.7-3.6,2.6-6.3,2.6c-4.7,0-8.1-3.5-8.1-8.5C121.3,170.5,124.6,166.7,129,166.7z M123.2,174.4h11.7c0-2.7-1.8-6.1-5.9-6.1
			C125.2,168.2,123.3,171.6,123.2,174.4z"/>
		<path class="st1" d="M142.4,167.1h1.7v2.8c1.4-1.8,3.2-3.1,5.4-3.1v1.9c-0.3,0-0.5-0.1-0.9-0.1c-1.6,0-3.8,1.5-4.6,2.9v11.8h-1.7
			V167.1z"/>
		<path class="st1" d="M154.4,179.8c1,1.3,2.9,2.4,5.2,2.4c2.7,0,4.3-1.3,4.3-3.2c0-2.1-2.2-2.7-4.5-3.3c-2.7-0.7-5.6-1.4-5.6-4.5
			c0-2.5,2.1-4.5,5.7-4.5c2.8,0,4.6,1.1,5.8,2.4l-1,1.2c-0.9-1.3-2.7-2.1-4.8-2.1c-2.5,0-4,1.2-4,2.9c0,1.8,2.1,2.3,4.3,2.9
			c2.8,0.7,5.9,1.5,5.9,4.9c0,2.6-2,4.7-6,4.7c-2.6,0-4.6-0.8-6.2-2.5L154.4,179.8z"/>
		<path class="st1" d="M170.8,163c0-0.7,0.6-1.3,1.3-1.3c0.7,0,1.3,0.6,1.3,1.3c0,0.7-0.6,1.3-1.3,1.3
			C171.5,164.4,170.8,163.8,170.8,163z M171.3,167.1h1.7v16.1h-1.7V167.1z"/>
		<path class="st1" d="M178.7,175.2c0-4.7,3-8.5,7.7-8.5c4.8,0,7.8,3.7,7.8,8.5c0,4.7-3,8.5-7.8,8.5
			C181.8,183.7,178.7,179.9,178.7,175.2z M192.4,175.2c0-3.6-2.1-6.9-5.9-6.9c-3.7,0-5.9,3.3-5.9,6.9c0,3.6,2.1,6.9,5.9,6.9
			C190.3,182.1,192.4,178.8,192.4,175.2z"/>
		<path class="st1" d="M211,172.4c0-3.1-1.6-4.1-3.9-4.1c-2.1,0-4.2,1.3-5.2,2.8v12.2h-1.7v-16.1h1.7v2.4c1.2-1.4,3.5-2.8,5.8-2.8
			c3.3,0,5.1,1.6,5.1,5.2v11.3H211V172.4z"/>
		<path class="st1" d="M70,207.7h-7.3V206h16.5v1.7h-7.3v20.5H70V207.7z"/>
		<path class="st1" d="M81.8,212.1h1.7v2.8c1.4-1.8,3.2-3.1,5.4-3.1v1.9c-0.3,0-0.5-0.1-0.9-0.1c-1.6,0-3.8,1.5-4.6,2.9v11.8h-1.7
			V212.1z"/>
		<path class="st1" d="M104.1,226.4c-1.4,1.6-3.2,2.3-5.5,2.3c-2.8,0-5.6-1.9-5.6-5.4c0-3.5,2.8-5.3,5.6-5.3c2.2,0,4,0.7,5.5,2.3
			V217c0-2.4-1.9-3.7-4.3-3.7c-2,0-3.6,0.7-5,2.4l-1-1.2c1.7-1.8,3.5-2.7,6.2-2.7c3.3,0,5.9,1.6,5.9,5.2v11.4h-1.7V226.4z
			 M104.1,221.5c-1.1-1.5-2.9-2.2-4.9-2.2c-2.7,0-4.4,1.7-4.4,4s1.7,4,4.4,4c1.9,0,3.7-0.7,4.9-2.2V221.5z"/>
		<path class="st1" d="M119.4,211.7c2.8,0,4.4,1.1,5.7,2.7l-1.2,1.1c-1.2-1.6-2.6-2.2-4.4-2.2c-3.8,0-6.1,3-6.1,6.9
			c0,3.9,2.3,6.9,6.1,6.9c1.8,0,3.2-0.7,4.4-2.3l1.2,1.1c-1.3,1.7-2.9,2.8-5.7,2.8c-4.7,0-7.8-3.8-7.8-8.5
			C111.6,215.5,114.7,211.7,119.4,211.7z"/>
		<path class="st1" d="M135,220.6l-3,2.8v4.8h-1.7V206h1.7v15.4l9.5-9.2h2.3l-7.5,7.3l7.5,8.9h-2.3L135,220.6z"/>
		<path class="st1" d="M148.2,208c0-0.7,0.6-1.3,1.3-1.3c0.7,0,1.3,0.6,1.3,1.3c0,0.7-0.6,1.3-1.3,1.3
			C148.9,209.4,148.2,208.8,148.2,208z M148.7,212.1h1.7v16.1h-1.7V212.1z"/>
		<path class="st1" d="M168,217.4c0-3.1-1.6-4.1-3.9-4.1c-2.1,0-4.2,1.3-5.2,2.8v12.2h-1.7v-16.1h1.7v2.4c1.2-1.4,3.5-2.8,5.8-2.8
			c3.3,0,5.1,1.6,5.1,5.2v11.3H168V217.4z"/>
		<path class="st1" d="M177.5,231c1.4,1.7,2.9,2.3,5.3,2.3c2.9,0,5.5-1.5,5.5-5.2v-2.5c-1.1,1.6-3.2,3-5.6,3c-4.3,0-7.2-3.2-7.2-8.4
			c0-5.1,2.9-8.5,7.2-8.5c2.3,0,4.3,1.2,5.6,3v-2.6h1.8v16c0,4.9-3.3,6.7-7.3,6.7c-2.7,0-4.4-0.5-6.3-2.4L177.5,231z M188.4,216.2
			c-0.9-1.6-3.1-2.9-5.3-2.9c-3.6,0-5.6,3-5.6,6.9s2.1,6.8,5.6,6.8c2.2,0,4.4-1.4,5.3-2.9V216.2z"/>
	</g>
</g>
<g id="_x3C_Group_x3E__1_" class="st2">
	<polygon class="st3" points="128,96.9 114.1,83 141.9,83 	"/>
	<polygon class="st4" points="128,69.1 141.9,83 114.1,83 	"/>
	<polyline class="st3" points="155.8,83 128,110.8 100.3,83 72.5,83 128,138.5 183.5,83 	"/>
	<polygon class="st4" points="128,55.3 128,27.5 183.5,83 155.8,83 	"/>
</g>
<g>
	
		<rect x="118.2" y="73.2" transform="matrix(0.7071 -0.7071 0.7071 0.7071 -21.1995 114.8198)" class="st1" width="19.6" height="19.6"/>
	<polygon class="st1" points="128,27.5 128,55.3 155.8,83 128,110.8 100.3,83 72.5,83 128,138.5 183.5,83 	"/>
</g>
<g>
</g>
<g>
</g>
<g>
</g>
<g>
</g>
<g>
</g>
<g>
</g>
<g>
</g>
<g>
</g>
<g>
</g>
<g>
</g>
<g>
</g>
<g>
</g>
<g>
</g>
<g>
</g>
<g>
</g>
</svg>
